<svg width="80" height="80" viewBox="0 0 80 80" fill="none" xmlns="http://www.w3.org/2000/svg">
<path d="M13.6188 16.9145L15.1698 18.1772L15.1698 18.1772L13.6188 16.9145ZM16.3595 62.8959L14.9453 61.4817L14.9453 61.4817L16.3595 62.8959ZM23.1813 56.0742L24.5955 57.4884L24.5956 57.4883L23.1813 56.0742ZM23.232 56.0216L21.7671 54.6599L21.7671 54.6599L23.232 56.0216ZM65.9483 54.8149L64.6856 53.2639L64.6856 53.2639L65.9483 54.8149ZM66.3807 54.3825L64.8297 53.1198L64.8297 53.1198L66.3807 54.3825ZM66.3807 16.9145L64.8297 18.1772L64.8297 18.1772L66.3807 16.9145ZM65.9483 16.4821L64.6856 18.0331L65.9483 16.4821ZM14.0513 16.4821L15.314 18.0331L15.314 18.0331L14.0513 16.4821ZM27.3743 28.2374C26.2698 28.2374 25.3743 29.1329 25.3743 30.2374C25.3743 31.342 26.2698 32.2374 27.3743 32.2374V28.2374ZM52.6252 32.2374C53.7297 32.2374 54.6252 31.342 54.6252 30.2374C54.6252 29.1329 53.7297 28.2374 52.6252 28.2374V32.2374ZM27.3743 39.0592C26.2698 39.0592 25.3743 39.9546 25.3743 41.0592C25.3743 42.1638 26.2698 43.0592 27.3743 43.0592V39.0592ZM45.4106 43.0592C46.5152 43.0592 47.4106 42.1638 47.4106 41.0592C47.4106 39.9546 46.5152 39.0592 45.4106 39.0592V43.0592ZM14.9453 21.4186C14.9453 20.1443 14.9485 19.3634 15.0158 18.7911C15.0471 18.5251 15.0858 18.3726 15.1163 18.2856C15.1426 18.2109 15.1618 18.1871 15.1698 18.1772L12.0678 15.6518C11.3937 16.4798 11.1494 17.4204 11.0432 18.3241C10.9421 19.1842 10.9453 20.2417 10.9453 21.4186H14.9453ZM14.9453 48.9382V21.4186H10.9453V48.9382H14.9453ZM14.9453 55.4884V48.9382H10.9453V55.4884H14.9453ZM14.9453 55.4884V55.4884H10.9453V55.4884H14.9453ZM14.9453 61.4817V55.4884H10.9453V61.4817H14.9453ZM14.9453 61.4817L14.9453 61.4817H10.9453C10.9453 65.0453 15.2539 66.83 17.7737 64.3101L14.9453 61.4817ZM21.7671 54.6599L14.9453 61.4817L17.7737 64.3102L24.5955 57.4884L21.7671 54.6599ZM21.7671 54.6599L21.7671 54.66L24.5956 57.4883C24.6299 57.454 24.6637 57.419 24.6968 57.3833L21.7671 54.6599ZM24.231 53.4884C22.9913 53.4884 22.1525 54.2454 21.7671 54.6599L24.6968 57.3833C24.744 57.3326 24.7449 57.3444 24.6904 57.376C24.628 57.4124 24.4666 57.4884 24.231 57.4884V53.4884ZM61.4442 53.4884H24.231V57.4884H61.4442V53.4884ZM64.6856 53.2639C64.6757 53.272 64.6518 53.2912 64.5771 53.3174C64.4902 53.348 64.3377 53.3867 64.0717 53.4179C63.4994 53.4852 62.7185 53.4884 61.4442 53.4884V57.4884C62.6211 57.4884 63.6786 57.4917 64.5387 57.3906C65.4424 57.2843 66.383 57.04 67.211 56.3659L64.6856 53.2639ZM64.8297 53.1198C64.7867 53.1726 64.7384 53.2209 64.6856 53.2639L67.211 56.3659C67.4751 56.1509 67.7166 55.9094 67.9317 55.6452L64.8297 53.1198ZM65.0542 49.8784C65.0542 51.1527 65.051 51.9336 64.9837 52.5059C64.9524 52.7719 64.9137 52.9244 64.8832 53.0114C64.8569 53.0861 64.8377 53.1099 64.8297 53.1198L67.9317 55.6452C68.6058 54.8172 68.8501 53.8767 68.9563 52.9729C69.0574 52.1128 69.0542 51.0553 69.0542 49.8784H65.0542ZM65.0542 21.4186V49.8784H69.0542V21.4186H65.0542ZM64.8297 18.1772C64.8377 18.1871 64.8569 18.2109 64.8832 18.2856C64.9137 18.3726 64.9524 18.5251 64.9837 18.7911C65.051 19.3634 65.0542 20.1443 65.0542 21.4186H69.0542C69.0542 20.2417 69.0574 19.1842 68.9563 18.3241C68.8501 17.4204 68.6058 16.4798 67.9317 15.6518L64.8297 18.1772ZM64.6856 18.0331C64.7384 18.0761 64.7867 18.1244 64.8297 18.1772L67.9317 15.6518C67.7166 15.3877 67.4751 15.1462 67.211 14.9311L64.6856 18.0331ZM61.4442 17.8086C62.7185 17.8086 63.4994 17.8118 64.0717 17.8791C64.3377 17.9104 64.4902 17.9491 64.5771 17.9796C64.6518 18.0059 64.6757 18.0251 64.6856 18.0331L67.211 14.9311C66.383 14.257 65.4424 14.0127 64.5387 13.9065C63.6786 13.8054 62.6211 13.8086 61.4442 13.8086V17.8086ZM18.5553 17.8086H61.4442V13.8086H18.5553V17.8086ZM15.314 18.0331C15.3238 18.0251 15.3477 18.0059 15.4224 17.9796C15.5093 17.9491 15.6618 17.9104 15.9278 17.8791C16.5001 17.8118 17.281 17.8086 18.5553 17.8086V13.8086C17.3784 13.8086 16.3209 13.8054 15.4608 13.9065C14.5571 14.0127 13.6166 14.257 12.7885 14.9311L15.314 18.0331ZM15.1698 18.1772C15.2128 18.1244 15.2611 18.0761 15.314 18.0331L12.7885 14.9311C12.5244 15.1462 12.2829 15.3877 12.0678 15.6518L15.1698 18.1772ZM27.3743 32.2374H52.6252V28.2374H27.3743V32.2374ZM27.3743 43.0592H45.4106V39.0592H27.3743V43.0592Z" fill="#0054DD"/>
</svg>
