<svg width="80" height="80" viewBox="0 0 80 80" fill="none" xmlns="http://www.w3.org/2000/svg">
<path d="M10.3335 8.33398C10.3335 7.22941 9.43807 6.33398 8.3335 6.33398C7.22893 6.33398 6.3335 7.22941 6.3335 8.33398V69.334C6.3335 72.6477 9.01979 75.334 12.3335 75.334H73.3335C74.4381 75.334 75.3335 74.4386 75.3335 73.334C75.3335 72.2294 74.4381 71.334 73.3335 71.334H12.3335C11.2289 71.334 10.3335 70.4386 10.3335 69.334V8.33398Z" fill="#0054DD"/>
<path d="M51.6667 21.334C50.5622 21.334 49.6667 22.2294 49.6667 23.334C49.6667 24.4386 50.5622 25.334 51.6667 25.334H61.8383L47.2911 39.8812C46.6824 40.4899 45.7525 40.6408 44.9825 40.2558L36.8065 36.1678C34.4966 35.0128 31.7067 35.4656 29.8806 37.2917L15.2525 51.9198C14.4715 52.7008 14.4715 53.9671 15.2525 54.7482C16.0336 55.5292 17.2999 55.5292 18.081 54.7482L32.709 40.1201C33.3177 39.5114 34.2477 39.3605 35.0177 39.7455L43.1937 43.8335C45.5036 44.9885 48.2934 44.5357 50.1196 42.7096L64.6667 28.1624V36.6673C64.6667 37.7719 65.5622 38.6673 66.6667 38.6673C67.7713 38.6673 68.6667 37.7719 68.6667 36.6673V23.334C68.6667 22.2294 67.7713 21.334 66.6667 21.334H51.6667Z" fill="#0054DD"/>
<path d="M10.3335 8.33398C10.3335 7.22941 9.43807 6.33398 8.3335 6.33398C7.22893 6.33398 6.3335 7.22941 6.3335 8.33398V69.334C6.3335 72.6477 9.01979 75.334 12.3335 75.334H73.3335C74.4381 75.334 75.3335 74.4386 75.3335 73.334C75.3335 72.2294 74.4381 71.334 73.3335 71.334H12.3335C11.2289 71.334 10.3335 70.4386 10.3335 69.334V8.33398Z" stroke="#AFCDFF"/>
<path d="M51.6667 21.334C50.5622 21.334 49.6667 22.2294 49.6667 23.334C49.6667 24.4386 50.5622 25.334 51.6667 25.334H61.8383L47.2911 39.8812C46.6824 40.4899 45.7525 40.6408 44.9825 40.2558L36.8065 36.1678C34.4966 35.0128 31.7067 35.4656 29.8806 37.2917L15.2525 51.9198C14.4715 52.7008 14.4715 53.9671 15.2525 54.7482C16.0336 55.5292 17.2999 55.5292 18.081 54.7482L32.709 40.1201C33.3177 39.5114 34.2477 39.3605 35.0177 39.7455L43.1937 43.8335C45.5036 44.9885 48.2934 44.5357 50.1196 42.7096L64.6667 28.1624V36.6673C64.6667 37.7719 65.5622 38.6673 66.6667 38.6673C67.7713 38.6673 68.6667 37.7719 68.6667 36.6673V23.334C68.6667 22.2294 67.7713 21.334 66.6667 21.334H51.6667Z" stroke="#AFCDFF"/>
</svg>
