<svg xmlns="http://www.w3.org/2000/svg" width="80" height="80" viewBox="0 0 80 80" fill="none">
<path d="M25.8098 35.28L44.6642 40.3321L36.1097 72.2579C35.9064 73.0166 34.948 73.2555 34.4123 72.681L28.2205 66.0398C27.9597 65.7601 27.5623 65.6536 27.1966 65.7654L18.5136 68.421C17.7625 68.6507 17.052 67.9645 17.2553 67.2059L25.8098 35.28Z" fill="white"/>
<path fill-rule="evenodd" clip-rule="evenodd" d="M24.3955 32.8305L47.1137 38.9178L38.0415 72.7755C37.4317 75.0516 34.5563 75.7683 32.9495 74.0449L27.1838 67.8608L19.0986 70.3335C16.8453 71.0227 14.7135 68.9643 15.3234 66.6882L24.3955 32.8305ZM27.224 37.7295L19.6541 65.9807L26.6117 63.8529C27.7087 63.5174 28.901 63.8369 29.6833 64.6759L34.6448 69.9975L42.2147 41.7463L27.224 37.7295Z" fill="#0054DD"/>
<path d="M55.1624 35.28L36.3079 40.3321L44.8624 72.2579C45.0657 73.0166 46.0242 73.2555 46.5598 72.681L52.7517 66.0398C53.0124 65.7601 53.4099 65.6536 53.7756 65.7654L62.4585 68.421C63.2096 68.6507 63.9202 67.9645 63.7169 67.2059L55.1624 35.28Z" fill="white"/>
<path fill-rule="evenodd" clip-rule="evenodd" d="M56.5766 32.8305L33.8585 38.9178L42.9306 72.7755C43.5405 75.0516 46.4158 75.7683 48.0226 74.0449L53.7883 67.8608L61.8736 70.3335C64.1269 71.0227 66.2586 68.9643 65.6487 66.6882L56.5766 32.8305ZM53.7482 37.7295L61.3181 65.9807L54.3605 63.8529C53.2634 63.5174 52.0711 63.8369 51.2888 64.6759L46.3273 69.9975L38.7574 41.7463L53.7482 37.7295Z" fill="#0054DD"/>
<path d="M39.18 7.13775C39.932 6.48533 41.0494 6.48533 41.8014 7.13776L45.515 10.3597C45.979 10.7623 46.6023 10.9293 47.2054 10.8126L52.0325 9.87917C53.0099 9.69015 53.9776 10.2488 54.3026 11.1898L55.9077 15.8369C56.1083 16.4176 56.5646 16.8738 57.1452 17.0744L61.7923 18.6795C62.7333 19.0046 63.292 19.9722 63.103 20.9497L62.1695 25.7767C62.0529 26.3799 62.2199 27.0031 62.6224 27.4671L65.8444 31.1808C66.4968 31.9328 66.4968 33.0501 65.8444 33.8021L62.6224 37.5157C62.2199 37.9797 62.0529 38.603 62.1695 39.2061L63.103 44.0332C63.292 45.0107 62.7333 45.9783 61.7923 46.3033L57.1452 47.9085C56.5646 48.109 56.1083 48.5653 55.9077 49.1459L54.3026 53.793C53.9776 54.734 53.0099 55.2927 52.0325 55.1037L47.2054 54.1702C46.6023 54.0536 45.979 54.2206 45.515 54.6232L41.8014 57.8451C41.0494 58.4975 39.932 58.4975 39.18 57.8451L35.4664 54.6232C35.0024 54.2206 34.3791 54.0536 33.776 54.1702L28.9489 55.1037C27.9715 55.2927 27.0038 54.734 26.6788 53.793L25.0737 49.1459C24.8731 48.5653 24.4168 48.109 23.8362 47.9085L19.1891 46.3033C18.2481 45.9783 17.6894 45.0107 17.8784 44.0332L18.8119 39.2061C18.9285 38.603 18.7615 37.9797 18.359 37.5157L15.137 33.8021C14.4846 33.0501 14.4846 31.9328 15.137 31.1808L18.359 27.4671C18.7615 27.0031 18.9285 26.3799 18.8119 25.7767L17.8784 20.9497C17.6894 19.9722 18.2481 19.0046 19.1891 18.6795L23.8362 17.0744C24.4168 16.8738 24.8731 16.4176 25.0737 15.8369L26.6788 11.1898C27.0038 10.2488 27.9715 9.69015 28.9489 9.87917L33.776 10.8126C34.3791 10.9293 35.0024 10.7623 35.4664 10.3597L39.18 7.13775Z" fill="#DBE8FF"/>
<path fill-rule="evenodd" clip-rule="evenodd" d="M37.8694 5.62707C39.3734 4.32222 41.6081 4.32223 43.112 5.62707L46.8257 8.84901L51.6528 7.91555C53.6077 7.53751 55.543 8.65486 56.193 10.5369L57.7982 15.184L62.4453 16.7891C64.3273 17.4392 65.4446 19.3745 65.0666 21.3294L64.1331 26.1565L67.3551 29.8701C68.6599 31.3741 68.6599 33.6088 67.3551 35.1128L64.1331 38.8264L65.0666 43.6535C65.4446 45.6084 64.3273 47.5437 62.4453 48.1938L57.7982 49.7989L56.193 54.446C55.543 56.328 53.6077 57.4454 51.6528 57.0673L46.8257 56.1339L43.112 59.3558C41.608 60.6606 39.3734 60.6606 37.8694 59.3558L34.1557 56.1339L29.3287 57.0673C27.3737 57.4454 25.4384 56.328 24.7884 54.446L23.1832 49.7989L18.5361 48.1938C16.6541 47.5437 15.5368 45.6084 15.9148 43.6535L16.8483 38.8264L13.6263 35.1128C12.3215 33.6088 12.3215 31.3741 13.6263 29.8701L16.8483 26.1565L15.9148 21.3294C15.5368 19.3745 16.6541 17.4392 18.5361 16.7891L23.1832 15.184L24.7884 10.5369C25.4384 8.65486 27.3738 7.53751 29.3287 7.91555L34.1557 8.84901L37.8694 5.62707ZM40.4907 8.64844L36.7771 11.8704C35.8491 12.6755 34.6025 13.0095 33.3963 12.7763L28.5692 11.8428L26.9641 16.4899C26.563 17.6512 25.6504 18.5637 24.4892 18.9648L19.8421 20.5699L20.7755 25.397C21.0088 26.6033 20.6748 27.8498 19.8696 28.7778L16.6477 32.4914L19.8696 36.2051C20.6748 37.1331 21.0088 38.3796 20.7755 39.5859L19.8421 44.4129L24.4892 46.0181C25.6504 46.4192 26.563 47.3317 26.9641 48.493L28.5692 53.1401L33.3963 52.2066C34.6025 51.9734 35.8491 52.3074 36.7771 53.1125L40.4907 56.3344L44.2043 53.1125C45.1323 52.3074 46.3789 51.9734 47.5851 52.2066L52.4122 53.1401L54.0173 48.493C54.4184 47.3317 55.331 46.4192 56.4922 46.0181L61.1393 44.4129L60.2059 39.5859C59.9726 38.3796 60.3066 37.1331 61.1118 36.2051L64.3337 32.4914L61.1118 28.7778C60.3066 27.8498 59.9726 26.6033 60.2059 25.397L61.1393 20.5699L56.4922 18.9648C55.331 18.5637 54.4184 17.6512 54.0173 16.4899L52.4122 11.8428L47.5851 12.7763C46.3789 13.0095 45.1324 12.6755 44.2043 11.8704L40.4907 8.64844Z" fill="#0054DD"/>
<path d="M39.7728 20.6725C40.148 19.9613 41.1665 19.9613 41.5417 20.6725L45.011 27.2479C45.1557 27.5221 45.4194 27.7137 45.7249 27.7666L53.0506 29.0341C53.8429 29.1712 54.1576 30.1398 53.5972 30.7164L48.4156 36.0478C48.1995 36.2702 48.0988 36.5802 48.1429 36.8871L49.2012 44.2459C49.3157 45.0418 48.4917 45.6404 47.7701 45.2856L41.0985 42.0052C40.8203 41.8684 40.4943 41.8684 40.216 42.0052L33.5444 45.2856C32.8229 45.6404 31.9989 45.0418 32.1133 44.2459L33.1716 36.8871C33.2157 36.5802 33.115 36.2702 32.8989 36.0478L27.7174 30.7164C27.157 30.1398 27.4717 29.1712 28.264 29.0341L35.5896 27.7666C35.8952 27.7137 36.1589 27.5221 36.3036 27.2479L39.7728 20.6725Z" fill="white"/>
<path fill-rule="evenodd" clip-rule="evenodd" d="M38.0039 19.7392C39.1295 17.6057 42.185 17.6057 43.3106 19.7392L46.5504 25.8797L53.3916 27.0634C55.7684 27.4747 56.7126 30.3806 55.0314 32.1104L50.1926 37.0891L51.1808 43.9612C51.5242 46.3488 49.0523 48.1448 46.8876 47.0804L40.6573 44.0169L34.4269 47.0804C32.2623 48.1448 29.7904 46.3488 30.1337 43.9612L31.122 37.0891L26.2831 32.1104C24.6019 30.3806 25.5461 27.4747 27.923 27.0634L34.7641 25.8797L38.0039 19.7392ZM40.6573 23.2821L38.0725 28.1812C37.6384 29.0039 36.8472 29.5787 35.9306 29.7373L30.4726 30.6817L34.3331 34.6539C34.9815 35.321 35.2837 36.251 35.1512 37.1718L34.3628 42.6545L39.3335 40.2104C40.1683 39.7999 41.1462 39.7999 41.981 40.2104L46.9518 42.6545L46.1633 37.1718C46.0309 36.2511 46.3331 35.321 46.9814 34.6539L50.842 30.6817L45.3839 29.7373C44.4673 29.5787 43.6761 29.0039 43.2421 28.1812L40.6573 23.2821Z" fill="#0054DD"/>
</svg>
