<svg width="394.967" height="117.97" xmlns="http://www.w3.org/2000/svg"><defs><clipPath clipPathUnits="userSpaceOnUse" id="a"><path d="M0 490.806h789.052V0H0Z" transform="translate(-107.153 -409.356)"/></clipPath><clipPath clipPathUnits="userSpaceOnUse" id="b"><path d="M0 490.806h789.052V0H0Z" transform="translate(-117.59 -392.493)"/></clipPath><clipPath clipPathUnits="userSpaceOnUse" id="c"><path d="M0 490.806h789.052V0H0Z" transform="translate(-154.313 -368.262)"/></clipPath><clipPath clipPathUnits="userSpaceOnUse" id="d"><path d="M0 490.806h789.052V0H0Z" transform="translate(-187.031 -357.85)"/></clipPath><clipPath clipPathUnits="userSpaceOnUse" id="e"><path d="M0 490.806h789.052V0H0Z" transform="translate(-213.546 -373.365)"/></clipPath><clipPath clipPathUnits="userSpaceOnUse" id="f"><path d="M0 490.806h789.052V0H0Z"/></clipPath><clipPath clipPathUnits="userSpaceOnUse" id="g"><path d="M0 490.806h789.052V0H0Z" transform="translate(-269.122 -357.85)"/></clipPath><clipPath clipPathUnits="userSpaceOnUse" id="h"><path d="M0 490.806h789.052V0H0Z" transform="translate(-298.444 -357.85)"/></clipPath><clipPath clipPathUnits="userSpaceOnUse" id="i"><path d="M0 490.806h789.052V0H0Z" transform="translate(-316.369 -357.85)"/></clipPath><clipPath clipPathUnits="userSpaceOnUse" id="j"><path d="M0 490.806h789.052V0H0Z" transform="translate(-360.91 -357.85)"/></clipPath></defs><path d="M0 0c9.33 6.429 11.137 11.992 11.362 12.844-1.08-5.24-3.757-7.765-6.337-10.082C3.143 1.066 1.65-.184-.203-1.934a12.89 12.89 0 0 1-2.43-3.099s1.35.407 2.64.675c.533.115 1.125.184 1.77.253H1.8c2.902.292 6.727.346 9.54 2.578 3.39 2.686 4.928 7.281 4.868 11.67-.061 4.389-1.5 8.631-3.173 12.667-.72-2.371-2.513-4.266-4.508-5.693-1.995-1.427-4.215-2.455-6.307-3.729-2.093-1.265-4.103-2.831-5.318-4.979-1.027-1.811-1.432-3.936-1.47-6.031-.037-2.094.398-4.473 1.163-6.529C-2.94-2.655-1.778-1.228 0 0" style="fill:#0054dd;fill-opacity:1;fill-rule:nonzero;stroke:none" transform="matrix(1.33333 0 0 -1.33333 37.593 30.413)" clip-path="url(#a)"/><path d="M0 0c-3.697 2.232-8.04 3.575-12.03 5.194l-.135.054c-5.52 2.133-9.45 7.588-9.45 13.987 0 4.189 1.68 7.972 4.395 10.687-7.755-1.933-13.508-9.084-13.508-17.608 0-7.105 4.141-12.636 9.75-16.35 4.261-2.823 8.858-4.941 13.246-7.511 3.847-2.248 6.645-6.23 6.712-10.856.068-4.251-2.092-8.31-5.603-10.573a11.818 11.818 0 0 0-6.389-1.887c-6.623 0-11.993 5.493-11.993 12.268 0 4.757 2.655 8.869 6.525 10.902-1.215.33-2.385.76-3.525 1.281-.007 0-.022.008-.03.008A24.37 24.37 0 0 0-30.03-4.55c-.247.277-.487.56-.72.844-4.853-4.749-7.882-11.447-7.882-18.882 0-14.477 11.475-26.217 25.627-26.217s25.628 11.74 25.628 26.217C12.623-12.966 7.553-4.55 0 0" style="fill:#0054dd;fill-opacity:1;fill-rule:nonzero;stroke:none" transform="matrix(1.33333 0 0 -1.33333 51.51 52.896)" clip-path="url(#b)"/><path d="m0 0 4.44 14.424h.512L9.353 0Zm12.536-10.412h7.21L9.353 19.708H.059l-10.413-30.12h7.171l1.788 5.832h12.143z" style="fill:#0054dd;fill-opacity:1;fill-rule:nonzero;stroke:none" transform="matrix(1.33333 0 0 -1.33333 100.472 85.204)" clip-path="url(#c)"/><path d="M0 0c-2.447 0-4.605.576-6.475 1.727-1.871 1.151-3.329 2.82-4.374 5.017-1.046 2.196-1.574 4.873-1.574 8.057 0 2.303.307 4.403.912 6.283.604 1.88 1.506 3.492 2.695 4.835 1.19 1.343 2.676 2.379 4.441 3.108 1.765.728 3.828 1.093 6.187 1.093 1.823 0 3.463-.23 4.912-.681 1.439-.451 2.676-1.103 3.693-1.947 1.017-.844 1.794-1.842 2.321-3.003.537-1.151.796-2.446.796-3.875L7.52 19.262c-.029 1.285-.307 2.33-.815 3.146a5.004 5.004 0 0 1-2.101 1.861c-.883.422-1.899.633-3.051.633-1.477 0-2.762-.355-3.865-1.074-1.103-.72-1.957-1.804-2.542-3.262-.595-1.458-.883-3.299-.883-5.516 0-1.669.173-3.127.509-4.374.335-1.256.844-2.292 1.506-3.108a6.351 6.351 0 0 1 2.407-1.841c.94-.413 2.024-.614 3.233-.614 1.266 0 2.369.22 3.29.652.931.442 1.65 1.084 2.168 1.947.518.864.806 1.919.863 3.176H2.983v4.556h11.319V.604h-4.47l.134 7.617h-.662c-.326-1.784-.873-3.281-1.659-4.509A7.645 7.645 0 0 0 4.594.931C3.347.297 1.793 0 0 0" style="fill:#0054dd;fill-opacity:1;fill-rule:nonzero;stroke:none" transform="matrix(1.33333 0 0 -1.33333 144.097 99.087)" clip-path="url(#d)"/><path d="M0 0h5.018c2.029 0 3.579.38 4.659 1.14 1.069.759 1.609 1.929 1.609 3.508 0 1.61-.51 2.81-1.519 3.599-1.01.79-2.53 1.19-4.559 1.19H0Zm-6.628-15.505v30.11H5.628c1.539 0 2.949-.12 4.238-.37 1.29-.24 2.44-.61 3.459-1.1 1.01-.489 1.89-1.079 2.629-1.779.74-.7 1.29-1.52 1.66-2.459.37-.94.55-2.009.55-3.189 0-1-.16-1.929-.48-2.779a6.05 6.05 0 0 0-1.5-2.26C15.515.02 14.645-.52 13.605-.95c-1.049-.43-2.289-.719-3.729-.869v-.55c1.72-.151 3.069-.52 4.049-1.12a6.26 6.26 0 0 0 2.279-2.349c.54-.97.99-2.129 1.36-3.469l1.699-6.208h-7.327l-1.29 5.698c-.25 1.16-.61 2.08-1.079 2.779-.48.7-1.1 1.21-1.89 1.53-.78.32-1.789.48-3.019.48H.01v-10.487h-6.638z" style="fill:#0054dd;fill-opacity:1;fill-rule:nonzero;stroke:none" transform="matrix(1.33333 0 0 -1.33333 179.45 78.4)" clip-path="url(#e)"/><path d="M236.358 387.97h6.73v-30.12h-6.73z" style="fill:#0054dd;fill-opacity:1;fill-rule:nonzero;stroke:none" transform="matrix(1.33333 0 0 -1.33333 -105.278 576.22)" clip-path="url(#f)"/><path d="M0 0c-1.949 0-3.676.202-5.203.614-1.516.413-2.812 1.008-3.868 1.795a7.841 7.841 0 0 0-2.438 2.938c-.556 1.171-.844 2.495-.844 3.983l5.701 1.574c.029-1.373.346-2.496.95-3.369.605-.873 1.43-1.516 2.477-1.93 1.046-.412 2.217-.614 3.522-.614 1.21 0 2.237.154 3.091.461.854.307 1.507.71 1.968 1.229.46.508.691 1.084.691 1.727 0 .759-.298 1.383-.883 1.863-.595.479-1.392.883-2.39 1.199a59.352 59.352 0 0 1-3.408.96 55.428 55.428 0 0 0-4.069 1.094c-1.325.413-2.534.932-3.629 1.575a7.854 7.854 0 0 0-2.63 2.476c-.662 1.008-.998 2.284-.998 3.83 0 1.775.461 3.321 1.373 4.616.912 1.296 2.227 2.304 3.935 3.024 1.709.72 3.743 1.075 6.105 1.075 2.361 0 4.425-.365 6.191-1.094 1.766-.73 3.129-1.785 4.089-3.158.96-1.372 1.42-3.004 1.391-4.905L5.327 19.61c.029.902-.096 1.708-.374 2.409-.279.701-.672 1.276-1.171 1.728-.5.451-1.123.806-1.882 1.056-.748.249-1.612.374-2.591.374-1.095 0-2.026-.144-2.803-.442-.778-.288-1.373-.681-1.776-1.161a2.596 2.596 0 0 1-.595-1.689c0-.787.307-1.421.912-1.901s1.43-.883 2.476-1.2a65.417 65.417 0 0 1 3.523-.959 62.057 62.057 0 0 0 3.849-1.028 16.897 16.897 0 0 0 3.609-1.554 7.78 7.78 0 0 0 2.678-2.563c.681-1.066 1.017-2.4 1.017-4.013 0-1.813-.479-3.369-1.439-4.664-.96-1.296-2.352-2.295-4.185-2.976C4.761.346 2.563 0 0 0" style="fill:#0054dd;fill-opacity:1;fill-rule:nonzero;stroke:none" transform="matrix(1.33333 0 0 -1.33333 253.55 99.087)" clip-path="url(#g)"/><path d="M0 0c-1.743 0-3.32.186-4.71.558-1.4.372-2.615.911-3.633 1.606a9.584 9.584 0 0 0-2.556 2.546c-.685.999-1.184 2.125-1.508 3.378-.332 1.254-.499 2.624-.499 4.113V30.12h6.541V12.475c0-1.547.245-2.82.725-3.819.48-.999 1.194-1.733 2.125-2.213.93-.48 2.105-.714 3.515-.714 1.42 0 2.585.234 3.525.714S5.16 7.657 5.64 8.656c.48.999.725 2.272.725 3.819V30.12h6.501V12.201c0-3.868-1.086-6.874-3.25-8.999C7.442 1.067 4.24 0 0 0" style="fill:#0054dd;fill-opacity:1;fill-rule:nonzero;stroke:none" transform="matrix(1.33333 0 0 -1.33333 292.647 99.087)" clip-path="url(#h)"/><path d="M0 0v30.12h8.75l13-21.45h.37l-.28 21.45h6.54V0h-8.11L6.58 22.22h-.32L6.49 0Z" style="fill:#0054dd;fill-opacity:1;fill-rule:nonzero;stroke:none" transform="matrix(1.33333 0 0 -1.33333 316.547 99.087)" clip-path="url(#i)"/><path d="M0 0c-2.445 0-4.604.576-6.474 1.727-1.871 1.151-3.329 2.82-4.375 5.017-1.045 2.187-1.573 4.873-1.573 8.057 0 2.303.298 4.403.902 6.283.604 1.88 1.506 3.492 2.696 4.835 1.189 1.343 2.677 2.379 4.441 3.108 1.766.728 3.827 1.093 6.188 1.093 1.821 0 3.463-.23 4.9-.681 1.44-.451 2.678-1.103 3.694-1.947 1.016-.844 1.793-1.842 2.322-3.003.526-1.16.796-2.446.796-3.875l-6.015-1.352c-.028 1.285-.307 2.33-.815 3.146a4.939 4.939 0 0 1-2.101 1.861c-.883.422-1.899.633-3.051.633-1.476 0-2.762-.355-3.866-1.074-1.103-.72-1.956-1.804-2.542-3.262-.594-1.458-.882-3.299-.882-5.516 0-1.669.173-3.127.508-4.374.336-1.256.845-2.292 1.507-3.108a6.351 6.351 0 0 1 2.407-1.841c.94-.413 2.015-.614 3.224-.614 1.265 0 2.369.22 3.299.652.93.442 1.65 1.084 2.168 1.947.518.864.805 1.919.864 3.176H2.955v4.556h11.319V.604H9.813l.135 7.617h-.662c-.326-1.784-.873-3.281-1.66-4.509C6.84 2.484 5.823 1.563 4.576.931 3.329.297 1.794 0 0 0" style="fill:#0054dd;fill-opacity:1;fill-rule:nonzero;stroke:none" transform="matrix(1.33333 0 0 -1.33333 375.935 99.087)" clip-path="url(#j)"/></svg>
