<svg width="395.484" height="118.033" xmlns="http://www.w3.org/2000/svg"><defs><clipPath clipPathUnits="userSpaceOnUse" id="a"><path d="M0 490.806h789.052V0H0Z" transform="translate(-441.676 -409.356)"/></clipPath><clipPath clipPathUnits="userSpaceOnUse" id="b"><path d="M0 490.806h789.052V0H0Z" transform="translate(-452.113 -392.493)"/></clipPath><clipPath clipPathUnits="userSpaceOnUse" id="c"><path d="M0 490.806h789.052V0H0Z" transform="translate(-489.222 -389.743)"/></clipPath><clipPath clipPathUnits="userSpaceOnUse" id="d"><path d="M0 490.806h789.052V0H0Z" transform="translate(-521.94 -379.33)"/></clipPath><clipPath clipPathUnits="userSpaceOnUse" id="e"><path d="M0 490.806h789.052V0H0Z" transform="translate(-548.455 -394.846)"/></clipPath><clipPath clipPathUnits="userSpaceOnUse" id="f"><path d="M0 490.806h789.052V0H0Z"/></clipPath><clipPath clipPathUnits="userSpaceOnUse" id="g"><path d="M0 490.806h789.052V0H0Z" transform="translate(-604.031 -379.33)"/></clipPath><clipPath clipPathUnits="userSpaceOnUse" id="h"><path d="M0 490.806h789.052V0H0Z" transform="translate(-633.354 -379.33)"/></clipPath><clipPath clipPathUnits="userSpaceOnUse" id="i"><path d="M0 490.806h789.052V0H0Z" transform="translate(-651.278 -379.33)"/></clipPath><clipPath clipPathUnits="userSpaceOnUse" id="j"><path d="M0 490.806h789.052V0H0Z" transform="translate(-695.82 -379.33)"/></clipPath><clipPath clipPathUnits="userSpaceOnUse" id="k"><path d="M0 490.806h789.052V0H0Z" transform="translate(-652.85 -360.29)"/></clipPath><clipPath clipPathUnits="userSpaceOnUse" id="l"><path d="M0 490.806h789.052V0H0Z" transform="translate(-614.757 -368.81)"/></clipPath><clipPath clipPathUnits="userSpaceOnUse" id="m"><path d="M0 490.806h789.052V0H0Z" transform="translate(-564.725 -361.52)"/></clipPath><clipPath clipPathUnits="userSpaceOnUse" id="n"><path d="M0 490.806h789.052V0H0Z" transform="translate(-521.472 -369.981)"/></clipPath></defs><path d="M0 0c9.33 6.429 11.137 11.992 11.362 12.844-1.08-5.24-3.757-7.765-6.337-10.082C3.143 1.066 1.65-.184-.203-1.934a12.89 12.89 0 0 1-2.43-3.099s1.35.407 2.64.675c.533.115 1.125.184 1.77.253H1.8c2.902.292 6.727.346 9.54 2.578 3.39 2.686 4.928 7.281 4.867 11.67-.06 4.389-1.5 8.631-3.172 12.667-.72-2.371-2.513-4.266-4.508-5.693-1.995-1.427-4.215-2.455-6.307-3.729-2.093-1.265-4.103-2.831-5.318-4.979-1.027-1.811-1.432-3.936-1.469-6.031-.037-2.094.397-4.473 1.162-6.529C-2.939-2.655-1.778-1.228 0 0" style="fill:#0054dd;fill-opacity:1;fill-rule:nonzero;stroke:none" transform="matrix(1.33333 0 0 -1.33333 37.594 30.413)" clip-path="url(#a)"/><path d="M0 0c-3.697 2.232-8.039 3.575-12.029 5.194l-.135.054c-5.521 2.133-9.45 7.588-9.45 13.987 0 4.189 1.678 7.972 4.393 10.687-7.755-1.933-13.507-9.084-13.507-17.608 0-7.105 4.141-12.636 9.75-16.35 4.26-2.823 8.859-4.941 13.246-7.511 3.847-2.248 6.645-6.23 6.712-10.856.068-4.251-2.092-8.31-5.602-10.573a11.824 11.824 0 0 0-6.391-1.887c-6.623 0-11.991 5.493-11.991 12.268 0 4.757 2.654 8.869 6.525 10.902-1.215.33-2.385.76-3.525 1.281-.009 0-.023.008-.031.008a24.367 24.367 0 0 0-7.994 5.854c-.248.277-.489.56-.72.844-4.854-4.749-7.884-11.447-7.884-18.882 0-14.477 11.476-26.217 25.628-26.217s25.628 11.74 25.628 26.217C12.623-12.966 7.553-4.55 0 0" style="fill:#0054dd;fill-opacity:1;fill-rule:nonzero;stroke:none" transform="matrix(1.33333 0 0 -1.33333 51.51 52.896)" clip-path="url(#b)"/><path d="m0 0 4.44 14.424h.511L9.353 0Zm12.535-10.412h7.211L9.353 19.708H.06l-10.414-30.12h7.171l1.788 5.832h12.142z" style="fill:#0054dd;fill-opacity:1;fill-rule:nonzero;stroke:none" transform="matrix(1.33333 0 0 -1.33333 100.988 56.564)" clip-path="url(#c)"/><path d="M0 0c-2.445 0-4.604.576-6.475 1.727-1.87 1.151-3.328 2.82-4.374 5.017-1.045 2.196-1.573 4.872-1.573 8.057 0 2.303.308 4.403.911 6.283.606 1.88 1.506 3.492 2.697 4.834 1.188 1.344 2.675 2.38 4.44 3.109 1.766.729 3.827 1.093 6.187 1.093 1.824 0 3.463-.23 4.912-.681 1.438-.451 2.676-1.103 3.694-1.947 1.016-.844 1.793-1.842 2.32-3.003.537-1.151.796-2.446.796-3.875l-6.014-1.352c-.029 1.285-.306 2.331-.816 3.146a5 5 0 0 1-2.1 1.861c-.882.422-1.9.633-3.05.633-1.478 0-2.763-.355-3.867-1.074-1.102-.72-1.956-1.804-2.542-3.262-.593-1.458-.881-3.3-.881-5.515 0-1.67.173-3.128.507-4.375.336-1.256.845-2.292 1.506-3.108a6.35 6.35 0 0 1 2.409-1.841c.939-.413 2.024-.614 3.233-.614 1.266 0 2.368.22 3.289.652a4.922 4.922 0 0 1 2.169 1.947c.518.864.806 1.919.862 3.175H2.983v4.557h11.32V.604H9.832l.136 7.617h-.662c-.327-1.784-.873-3.281-1.66-4.509A7.656 7.656 0 0 0 4.596.931C3.349.297 1.795 0 0 0" style="fill:#0054dd;fill-opacity:1;fill-rule:nonzero;stroke:none" transform="matrix(1.33333 0 0 -1.33333 144.612 70.447)" clip-path="url(#d)"/><path d="M0 0h5.019c2.029 0 3.579.38 4.658 1.14 1.07.759 1.61 1.929 1.61 3.508 0 1.61-.511 2.81-1.52 3.599-1.009.79-2.529 1.19-4.558 1.19H0Zm-6.627-15.505v30.11H5.629c1.539 0 2.949-.12 4.238-.37 1.29-.24 2.439-.61 3.459-1.099 1.01-.49 1.889-1.08 2.629-1.78s1.29-1.52 1.66-2.459c.369-.94.549-2.009.549-3.189 0-1-.159-1.929-.479-2.779a6.05 6.05 0 0 0-1.5-2.26C15.515.02 14.646-.52 13.605-.95c-1.049-.43-2.289-.719-3.728-.87v-.55c1.72-.15 3.069-.519 4.049-1.119a6.268 6.268 0 0 0 2.279-2.349c.54-.97.99-2.129 1.359-3.469l1.7-6.208h-7.327l-1.291 5.698c-.25 1.16-.609 2.079-1.08 2.779a4.1 4.1 0 0 1-1.888 1.53c-.781.32-1.789.48-3.019.48H.01v-10.487h-6.637z" style="fill:#0054dd;fill-opacity:1;fill-rule:nonzero;stroke:none" transform="matrix(1.33333 0 0 -1.33333 179.966 49.76)" clip-path="url(#e)"/><path d="M571.268 409.451h6.73v-30.12h-6.73z" style="fill:#0054dd;fill-opacity:1;fill-rule:nonzero;stroke:none" transform="matrix(1.33333 0 0 -1.33333 -551.307 576.22)" clip-path="url(#f)"/><path d="M0 0c-1.949 0-3.678.202-5.203.614-1.517.413-2.813 1.008-3.868 1.795a7.834 7.834 0 0 0-2.439 2.938c-.556 1.171-.844 2.495-.844 3.983l5.702 1.574c.029-1.373.344-2.496.95-3.369.604-.873 1.43-1.516 2.475-1.93 1.047-.412 2.218-.614 3.524-.614 1.209 0 2.236.154 3.091.461.853.307 1.507.71 1.966 1.229.461.508.693 1.084.693 1.727 0 .759-.298 1.383-.884 1.863-.596.479-1.392.882-2.391 1.199a58.62 58.62 0 0 1-3.407.96 55.563 55.563 0 0 0-4.069 1.094c-1.324.413-2.534.932-3.628 1.575a7.826 7.826 0 0 0-2.63 2.476c-.662 1.008-.998 2.284-.998 3.83 0 1.776.461 3.321 1.372 4.616.911 1.296 2.227 2.304 3.936 3.024 1.708.72 3.743 1.075 6.104 1.075s4.425-.365 6.191-1.094c1.767-.73 3.129-1.785 4.088-3.158.96-1.372 1.421-3.004 1.393-4.905L5.327 19.61c.027.902-.097 1.708-.375 2.409a4.56 4.56 0 0 1-1.172 1.728c-.499.451-1.123.806-1.881 1.056-.749.249-1.612.374-2.591.374-1.094 0-2.026-.144-2.802-.442-.778-.288-1.373-.681-1.777-1.161a2.595 2.595 0 0 1-.594-1.689c0-.787.306-1.421.912-1.901.603-.48 1.43-.883 2.475-1.2a64.713 64.713 0 0 1 3.524-.959 62.057 62.057 0 0 0 3.849-1.028 16.941 16.941 0 0 0 3.609-1.554 7.797 7.797 0 0 0 2.678-2.563c.68-1.066 1.016-2.4 1.016-4.013 0-1.813-.479-3.369-1.439-4.664C9.8 2.707 8.407 1.708 6.573 1.027 4.76.346 2.562 0 0 0" style="fill:#0054dd;fill-opacity:1;fill-rule:nonzero;stroke:none" transform="matrix(1.33333 0 0 -1.33333 254.068 70.447)" clip-path="url(#g)"/><path d="M0 0c-1.742 0-3.319.186-4.71.558-1.4.372-2.614.911-3.633 1.606a9.58 9.58 0 0 0-2.555 2.546c-.686.999-1.186 2.125-1.508 3.378-.333 1.254-.499 2.624-.499 4.113V30.12h6.541V12.475c0-1.547.245-2.82.723-3.819.481-.999 1.196-1.733 2.125-2.213.93-.48 2.107-.714 3.516-.714 1.419 0 2.585.234 3.525.714.941.48 1.635 1.214 2.116 2.213.479.999.723 2.272.723 3.819V30.12h6.502V12.201c0-3.868-1.087-6.874-3.251-8.999C7.441 1.067 4.239 0 0 0" style="fill:#0054dd;fill-opacity:1;fill-rule:nonzero;stroke:none" transform="matrix(1.33333 0 0 -1.33333 293.164 70.447)" clip-path="url(#h)"/><path d="M0 0v30.12h8.75l13-21.45h.369l-.279 21.45h6.54V0h-8.11L6.58 22.22h-.32L6.489 0Z" style="fill:#0054dd;fill-opacity:1;fill-rule:nonzero;stroke:none" transform="matrix(1.33333 0 0 -1.33333 317.064 70.447)" clip-path="url(#i)"/><path d="M0 0c-2.446 0-4.604.576-6.476 1.727-1.87 1.151-3.328 2.82-4.374 5.017-1.045 2.187-1.573 4.872-1.573 8.057 0 2.303.298 4.403.902 6.283.605 1.88 1.506 3.492 2.696 4.834 1.189 1.344 2.676 2.38 4.44 3.109 1.766.729 3.828 1.093 6.188 1.093 1.823 0 3.463-.23 4.902-.681 1.439-.451 2.676-1.103 3.692-1.947 1.018-.844 1.794-1.842 2.323-3.003.527-1.16.796-2.446.796-3.875l-6.015-1.352c-.028 1.285-.308 2.331-.815 3.146a4.939 4.939 0 0 1-2.101 1.861c-.883.422-1.899.633-3.051.633-1.476 0-2.763-.355-3.865-1.074-1.104-.72-1.957-1.804-2.542-3.262-.596-1.458-.883-3.3-.883-5.515 0-1.67.173-3.128.509-4.375.336-1.256.844-2.292 1.506-3.108a6.354 6.354 0 0 1 2.408-1.841c.939-.413 2.014-.614 3.223-.614 1.265 0 2.369.22 3.299.652.93.442 1.65 1.084 2.167 1.947.519.864.807 1.919.865 3.175H2.955v4.557h11.318V.604h-4.46l.133 7.617h-.661c-.326-1.784-.872-3.281-1.659-4.509C6.839 2.484 5.822 1.564 4.575.931 3.329.297 1.794 0 0 0" style="fill:#0054dd;fill-opacity:1;fill-rule:nonzero;stroke:none" transform="matrix(1.33333 0 0 -1.33333 376.453 70.447)" clip-path="url(#j)"/><path d="M0 0c.78-.84 3.66-4.5 4.261-5.4L2.88-7.17c-.75 1.5-3.09 4.92-3.989 6.12zm-2.1 3.24 1.44-.51c-.989-4.8-3.15-10.68-5.4-13.71-.24.6-.78 1.5-1.169 2.01C-5.1-6.27-3-1.08-2.1 3.24m.121 7.77h2.13v-27.57h-2.13zM-6.51 4.56H4.051V2.43H-6.51Zm22.5 5.94c1.111-3.96 3.24-8.49 5.1-10.89-.569-.42-1.409-1.23-1.829-1.83C17.28.57 15.21 5.52 13.98 9.84Zm-7.679-.09 2.339-.45c-1.139-4.8-3-9.33-5.339-12.27-.42.39-1.38 1.11-1.951 1.44C5.7 1.8 7.38 6 8.311 10.41M14.04-7.11l1.92.93c2.011-2.97 4.23-6.9 5.13-9.39l-2.1-1.08c-.84 2.49-2.969 6.51-4.95 9.54M3.36-13.14c3.75.18 9.72.51 15.48.84l-.029-2.07c-5.401-.39-11.13-.81-15.061-1.05ZM10.471-.66l2.58-.63c-1.381-4.23-3.33-9.6-4.921-12.93l-1.98.63c1.56 3.42 3.39 8.97 4.321 12.93" style="fill:#0054dd;fill-opacity:1;fill-rule:nonzero;stroke:none" transform="matrix(1.33333 0 0 -1.33333 319.159 95.833)" clip-path="url(#k)"/><path d="M0 0h2.16v-11.94h.12v-11.43h-2.4v11.43H0Zm-10.38-15.72h23.16v-2.131h-23.16zm-2.01-6.45H14.4v-2.1h-26.79zm3 23.46h21.18v-13.56H-9.39Zm2.22-5.79H9.45v3.75H-7.17Zm0-5.73H9.45v3.81H-7.17Z" style="fill:#0054dd;fill-opacity:1;fill-rule:nonzero;stroke:none" transform="matrix(1.33333 0 0 -1.33333 268.369 84.474)" clip-path="url(#l)"/><path d="M0 0c.721-.72 3.36-3.93 3.96-4.74L2.61-6.48C1.891-5.16-.27-2.07-1.109-.99zm-2.069 2.01 1.409-.48C-1.649-3.3-3.779-9.15-6.029-12.18c-.241.6-.781 1.47-1.2 1.98C-5.1-7.5-2.97-2.31-2.069 2.01m.09 7.77h2.13v-27.57h-2.13zM-6.51 3.33H4.051V1.2H-6.51ZM8.37 4.98C10.23.72 14.641-3.99 21.24-6c-.45-.42-1.08-1.32-1.38-1.86C13.17-5.52 8.761-.54 6.721 3.93Zm8.01 1.56h.421l.389.09 1.411-.66C16.021-1.47 9.84-6.24 3.45-8.55c-.269.57-.84 1.41-1.29 1.83C8.19-4.83 14.19-.21 16.38 6.15ZM9.42 9.81l2.16-.6C9.96 5.22 7.32 1.47 4.59-.9 4.23-.51 3.33.27 2.82.6c2.76 2.16 5.191 5.58 6.6 9.21M6.721-14.55h10.71v-1.98H6.721ZM5.82-6.84h12.63v-10.92h-2.16v8.97H7.92v-9.06h-2.1ZM8.551 6.54h8.46V4.56h-8.46z" style="fill:#0054dd;fill-opacity:1;fill-rule:nonzero;stroke:none" transform="matrix(1.33333 0 0 -1.33333 201.659 94.193)" clip-path="url(#m)"/><path d="M0 0h.391l.33.09L2.19-.78c-.87-2.46-1.98-5.4-3-7.8 2.19-2.49 2.701-4.68 2.701-6.54 0-1.62-.361-2.91-1.201-3.51-.419-.3-.93-.48-1.56-.57-.6-.06-1.35-.06-2.01-.03-.03.54-.24 1.41-.57 1.98.69-.06 1.261-.09 1.74-.03.391.03.69.09.96.27.45.33.63 1.17.63 2.07 0 1.65-.54 3.75-2.73 6.12C-1.74-6.09-.63-2.64 0-.6zm-6.45 0H.54v-2.04h-4.95v-24.27h-2.04ZM3.57-7.11h1.979v-13.17H3.57Zm1.02 0h7.5V-18h-7.5v1.95h5.49v6.99H4.59ZM15.3-1.8h2.16v-21.66c0-1.56-.45-2.16-1.5-2.49-1.08-.33-2.91-.36-6-.33-.12.57-.48 1.44-.779 2.04 2.369-.06 4.59-.06 5.25-.03.63.03.869.21.869.81zM2.55-.75h17.49v-2.1H2.55Z" style="fill:#0054dd;fill-opacity:1;fill-rule:nonzero;stroke:none" transform="matrix(1.33333 0 0 -1.33333 143.988 82.913)" clip-path="url(#n)"/></svg>
