<?xml version="1.0" encoding="UTF-8" standalone="no"?>
<svg
   version="1.1"
   id="svg1"
   width="240"
   height="240"
   viewBox="0 0 239.99999 240"
   xmlns="http://www.w3.org/2000/svg"
   xmlns:svg="http://www.w3.org/2000/svg">
  <defs
     id="defs1">
    <clipPath
       clipPathUnits="userSpaceOnUse"
       id="clipPath149-2">
      <path
         d="M 0,490.806 H 789.052 V 0 H 0 Z"
         transform="translate(-252.87358,-232.12651)"
         id="path149-7" />
    </clipPath>
    <clipPath
       clipPathUnits="userSpaceOnUse"
       id="clipPath147-0">
      <path
         d="M 0,490.806 H 789.052 V 0 H 0 Z"
         transform="translate(-232.81693,-264.33451)"
         id="path147-3" />
    </clipPath>
  </defs>
  <rect
     style="fill:#0054dd;fill-opacity:1"
     id="rect193"
     width="240"
     height="240"
     x="4.1729876e-05"
     y="0"
     rx="24"
     ry="24" />
  <g
     id="g193"
     transform="matrix(0.81445794,0,0,0.81445794,-32.015529,-549.29451)">
    <path
       id="path146-9"
       d="M 0,0 C 17.928,12.281 21.401,22.906 21.834,24.533 19.759,14.524 14.613,9.702 9.655,5.276 6.039,2.037 3.171,-0.351 -0.39,-3.693 c -2.103,-1.978 -3.602,-4.015 -4.669,-5.921 0,0 2.594,0.777 5.074,1.29 1.022,0.22 2.161,0.352 3.401,0.484 h 0.043 c 5.576,0.557 12.927,0.659 18.332,4.924 6.514,5.129 9.468,13.908 9.353,22.29 C 31.028,27.757 28.262,35.861 25.048,43.57 23.664,39.042 20.22,35.422 16.386,32.696 12.553,29.97 8.286,28.006 4.266,25.574 0.244,23.155 -3.617,20.166 -5.952,16.062 -7.927,12.604 -8.704,8.544 -8.777,4.543 -8.85,0.543 -8.014,-4.001 -6.543,-7.928 -5.649,-5.07 -3.415,-2.345 0,0"
       style="fill:#ffffff;fill-opacity:1;fill-rule:nonzero;stroke:none"
       transform="matrix(1.3333333,0,0,-1.3333333,193.22409,767.19349)"
       clip-path="url(#clipPath147-0)" />
    <path
       id="path148-9"
       d="m 0,0 c -7.105,4.265 -15.45,6.829 -23.117,9.921 l -0.259,0.103 c -10.607,4.074 -18.159,14.494 -18.159,26.716 0,8.002 3.228,15.227 8.445,20.415 -14.901,-3.693 -25.955,-17.352 -25.955,-33.634 0,-13.57 7.955,-24.137 18.734,-31.23 8.187,-5.393 17.021,-9.438 25.452,-14.347 7.393,-4.294 12.769,-11.9 12.899,-20.737 0.129,-8.119 -4.021,-15.872 -10.766,-20.195 -3.66,-2.345 -7.941,-3.605 -12.279,-3.605 -12.725,0 -23.044,10.493 -23.044,23.433 0,9.087 5.102,16.942 12.538,20.825 -2.335,0.631 -4.583,1.451 -6.773,2.448 -0.015,0 -0.044,0.014 -0.058,0.014 -5.851,2.638 -11.068,6.463 -15.363,11.182 -0.476,0.528 -0.937,1.07 -1.384,1.612 -9.324,-9.071 -15.146,-21.865 -15.146,-36.066 0,-27.654 22.049,-50.077 49.245,-50.077 27.195,0 49.245,22.423 49.245,50.077 C 24.255,-24.767 14.512,-8.691 0,0"
       style="fill:#ffffff;fill-opacity:1;fill-rule:nonzero;stroke:none"
       transform="matrix(1.3333333,0,0,-1.3333333,219.96629,810.13749)"
       clip-path="url(#clipPath149-2)" />
  </g>
</svg>
